# xmcd CD database file
#
# Track frame offsets:
#	150
#	15223
#	23180
#	34703
#	45664
#	60876
#	70952
#	84893
#	99808
#	112114
#	122721
#	147163
#	161389
#	177705
#	190714
#
# Disc length: 4437 seconds
#
# Revision: 0
# Processed by: cddbd v1.5.2PL0 Copyright (c) Steve Scherf et al.
# Submitted via: Feurio! 1.68 - http://www.feurio.com
#
DISCID=b411530f
DTITLE=Neko Case - Middle Cyclone
DYEAR=2009
DGENRE=
TTITLE0=This Tornado Loves You
TTITLE1=The Next Time You Say Forever
TTITLE2=People Gott A Lotta Nerve 
TTITLE3=Polar Nettles
TTITLE4=Vengeance Is Sleeping
TTITLE5=Never Turn You Back On Mother Earth
TTITLE6=Middle Cyclone 
TTITLE7=Fever
TTITLE8=Magpie To The Morning 
TTITLE9=I'm An Animal
TTITLE10=Prison Girls
TTITLE11=Don't Forget Me 
TTITLE12=The Pharaohs 
TTITLE13=Red Tide
TTITLE14='Marais La Nuit
EXTD=
EXTT0=
EXTT1=
EXTT2=
EXTT3=
EXTT4=
EXTT5=
EXTT6=
EXTT7=
EXTT8=
EXTT9=
EXTT10=
EXTT11=
EXTT12=
EXTT13=
EXTT14=
PLAYORDER=
